<svg width="64" height="49" viewBox="0 0 64 49" fill="none" xmlns="http://www.w3.org/2000/svg">
<path d="M28.5383 0.0056773C28.6949 0.00381463 28.8516 0.00195196 29.013 3.28481e-05C30.4077 -0.00259875 31.7277 0.152345 33.0348 0.661622C33.2451 0.742207 33.2451 0.742207 33.4596 0.82442C33.561 0.864811 33.6624 0.905201 33.7668 0.946816C33.275 1.3338 32.7561 1.64663 32.2172 1.96401C29.6495 3.53241 28.2514 5.73896 27.483 8.62803C27.2588 9.78318 27.2657 10.9137 27.6217 12.0225C27.6603 12.1427 27.6917 12.266 27.7 12.3919C27.8015 13.9379 26.8896 15.0106 25.962 16.2047C25.878 16.3084 25.7941 16.4121 25.7076 16.519C25.4661 16.8251 25.2703 17.0765 25.1298 17.3908C25.0158 17.646 25.0149 17.9529 25.1926 18.1687C25.4527 18.4844 25.8678 18.6438 26.2606 18.8382C26.3467 18.8808 26.4279 18.9333 26.5033 18.9929C26.7162 19.1611 26.7692 19.2256 26.8455 19.4555C26.8933 19.5999 26.9184 19.7517 26.9156 19.9037C26.9115 20.1229 26.8728 20.1632 26.694 20.3495C26.5478 20.4896 26.4477 20.6822 26.4651 20.884C26.4743 20.9903 26.5017 21.0667 26.568 21.2169C26.6003 21.29 26.6526 21.3529 26.7186 21.398C26.8301 21.4742 26.8908 21.5119 26.9673 21.5443C27.0952 21.5987 27.1594 21.7416 27.0866 21.86C27.0808 21.8693 27.0721 21.8851 27.0679 21.8952C26.9419 22.2006 26.9104 22.4645 26.9102 22.7568C26.91 22.9981 27.0677 23.2098 27.2929 23.2965C27.6668 23.4515 27.8334 23.8385 27.8229 24.2431C27.8152 24.5396 27.8043 24.836 27.7887 25.1327C27.7773 25.5952 27.7807 25.8786 27.9873 26.2214C28.0684 26.356 28.1841 26.4672 28.3196 26.5468C29.016 26.9562 29.7405 26.8722 30.5726 26.8044C31.0112 26.7195 31.4425 26.6113 31.875 26.5001C33.4733 26.0955 33.7758 26.0189 34.3581 26.1083C34.6729 26.1566 34.984 26.2655 35.2188 26.4808C35.6542 26.8799 35.7491 27.3372 35.8907 27.9759C35.9872 28.4115 36.0483 28.8556 36.0483 29.3018C36.0483 30.2333 36.0483 31.1693 36.0483 32.128C36.0483 35.0587 30.8631 32.8041 27.3038 32.2449C26.5831 32.1317 25.9809 31.556 25.9445 30.8274C25.9179 30.2947 25.8911 29.7583 25.8638 29.2138C25.8596 29.1287 25.8488 29.0437 25.8316 28.9603C25.5907 27.7897 25.5425 27.6073 25.0517 26.7797C24.8893 26.5058 24.6103 26.315 24.2922 26.2985C23.4569 26.2553 22.6685 26.4098 21.8457 26.6523C20.8228 26.9456 19.7881 27.1581 18.7324 26.9883C18.6156 26.9695 18.504 26.926 18.4023 26.8655C18.1123 26.6931 18.0266 26.6286 17.8316 26.4108C17.707 26.2715 17.6209 26.0997 17.605 25.9135C17.576 25.5738 17.6079 25.2432 17.6439 24.8936C17.673 24.6088 17.6831 24.3623 17.6759 24.1042C17.667 23.7872 17.5156 23.4849 17.2579 23.3C17.2118 23.2669 17.1678 23.2381 17.1187 23.2088C16.8814 23.0673 16.689 22.8415 16.6849 22.5652C16.6812 22.3198 16.7346 22.137 16.8687 21.8998C16.9502 21.7557 16.9003 21.5698 16.7503 21.4998C16.5373 21.387 16.4646 21.3485 16.3528 21.2484C16.2013 21.1127 16.1138 20.9035 16.1649 20.7066C16.1755 20.6659 16.1896 20.6252 16.2102 20.5729C16.2498 20.4726 16.3322 20.3969 16.4345 20.3628C16.6057 20.3058 16.7155 20.1338 16.6844 19.9562C16.6112 19.5379 16.5012 19.2613 16.1127 18.936C15.8705 18.7785 15.6251 18.6258 15.3766 18.4785C15.2294 18.3898 15.1503 18.3421 15.0777 18.2864C14.852 18.1133 14.7393 17.8177 14.8136 17.5432C14.9701 16.9653 15.4062 16.5153 15.7901 16.0335C16.9453 14.6325 16.9979 14.5686 17.3366 12.9988C17.3701 12.8432 17.3848 12.6829 17.38 12.5238C17.3787 12.4779 17.3773 12.4316 17.3759 12.3849C17.3561 12.1214 17.3507 12.0502 17.2866 11.8639C17.2246 11.6837 17.18 11.4974 17.1696 11.3072C17.0291 8.71924 17.4864 6.44328 19.175 4.36201C19.5153 3.97143 19.867 3.59825 20.2296 3.22836C20.3814 3.06837 20.3814 3.06837 20.5362 2.90514C22.6232 0.865923 25.6959 0.0074168 28.5383 0.0056773Z" fill="#008FE8"/>
<circle cx="31.1812" cy="21.4465" r="0.608413" fill="#3B83FF"/>
<circle cx="39.8511" cy="21.9028" r="0.608413" fill="#3B83FF"/>
<circle cx="32.2461" cy="7.75737" r="1.82524" fill="#3B83FF"/>
<circle cx="30.4207" cy="16.1228" r="1.97734" fill="#3B83FF"/>
<circle cx="36.3526" cy="11.7119" r="1.52103" fill="#3B83FF"/>
<circle cx="35.5918" cy="18.2525" r="0.912619" fill="#3B83FF"/>
<circle cx="40.9158" cy="15.0581" r="1.06472" fill="#3B83FF"/>
<circle cx="42.5889" cy="9.88674" r="0.912619" fill="#3B83FF"/>
<circle cx="39.0904" cy="6.99685" r="0.912619" fill="#3B83FF"/>
<circle cx="37.7217" cy="2.43361" r="0.608413" fill="#3B83FF"/>
<line x1="31.3595" y1="16.6289" x2="36.066" y2="18.2354" stroke="#3B83FF" stroke-width="0.608413"/>
<line x1="31.0098" y1="21.41" x2="35.1194" y2="18.6094" stroke="#3B83FF" stroke-width="0.608413"/>
<line x1="35.7451" y1="17.6204" x2="36.1482" y2="12.4489" stroke="#3B83FF" stroke-width="0.608413"/>
<line x1="39.8548" y1="21.8553" x2="40.8221" y2="15.7712" stroke="#3B83FF" stroke-width="0.608413"/>
<line x1="36.6095" y1="11.6373" x2="33.1111" y2="8.59521" stroke="#3B83FF" stroke-width="0.608413"/>
<line x1="39.497" y1="6.85953" x2="36.3028" y2="11.7268" stroke="#3B83FF" stroke-width="0.608413"/>
<line x1="38.9502" y1="6.7762" x2="37.7333" y2="2.51731" stroke="#3B83FF" stroke-width="0.608413"/>
<line x1="42.8262" y1="9.72238" x2="36.5899" y2="11.5476" stroke="#3B83FF" stroke-width="0.608413"/>
<line x1="41.034" y1="15.1468" x2="36.3188" y2="11.4963" stroke="#3B83FF" stroke-width="0.608413"/>
<path d="M6.02523 37.1549V38.5895H4.0487V44.6147H2.23157V38.5895H0.255036V37.1549H6.02523ZM10.5821 38.6214C11.2622 38.6214 11.8077 38.8481 12.2186 39.3015C12.6295 39.7478 12.8349 40.3641 12.8349 41.1505V44.6147H11.0284V41.3949C11.0284 40.9982 10.9257 40.69 10.7202 40.4704C10.5148 40.2508 10.2385 40.141 9.89138 40.141C9.54424 40.141 9.26795 40.2508 9.06251 40.4704C8.85706 40.69 8.75434 40.9982 8.75434 41.3949V44.6147H6.93721V36.7511H8.75434V39.4821C8.93853 39.22 9.19003 39.011 9.50882 38.8552C9.82762 38.6993 10.1854 38.6214 10.5821 38.6214ZM15.0115 38.0688C14.6927 38.0688 14.4306 37.9767 14.2252 37.7925C14.0268 37.6012 13.9276 37.3675 13.9276 37.0912C13.9276 36.8078 14.0268 36.574 14.2252 36.3898C14.4306 36.1985 14.6927 36.1029 15.0115 36.1029C15.3232 36.1029 15.5783 36.1985 15.7766 36.3898C15.9821 36.574 16.0848 36.8078 16.0848 37.0912C16.0848 37.3675 15.9821 37.6012 15.7766 37.7925C15.5783 37.9767 15.3232 38.0688 15.0115 38.0688ZM15.9148 38.6852V44.6147H14.0977V38.6852H15.9148ZM20.8447 38.6214C21.5389 38.6214 22.0915 38.8481 22.5024 39.3015C22.9204 39.7478 23.1294 40.3641 23.1294 41.1505V44.6147H21.3229V41.3949C21.3229 40.9982 21.2201 40.69 21.0147 40.4704C20.8092 40.2508 20.5329 40.141 20.1858 40.141C19.8387 40.141 19.5624 40.2508 19.3569 40.4704C19.1515 40.69 19.0488 40.9982 19.0488 41.3949V44.6147H17.2316V38.6852H19.0488V39.4715C19.233 39.2094 19.4809 39.0039 19.7926 38.8552C20.1043 38.6993 20.455 38.6214 20.8447 38.6214ZM28.0157 44.6147L26.2092 42.1281V44.6147H24.3921V36.7511H26.2092V41.0974L28.0051 38.6852H30.2473L27.7819 41.6606L30.2685 44.6147H28.0157Z" fill="#008FE8"/>
<path d="M30.6528 40.8742C30.6528 40.1374 30.8122 39.4821 31.131 38.9083C31.4498 38.3274 31.8926 37.8775 32.4594 37.5587C33.0332 37.2329 33.6814 37.0699 34.404 37.0699C35.2896 37.0699 36.0476 37.3037 36.6781 37.7713C37.3086 38.2388 37.7301 38.8764 37.9426 39.684H35.9449C35.789 39.3794 35.5765 39.1492 35.3073 38.9933C35.0381 38.8304 34.7299 38.7489 34.3828 38.7489C33.8231 38.7489 33.3697 38.9437 33.0226 39.3334C32.6754 39.7159 32.5019 40.2295 32.5019 40.8742C32.5019 41.5189 32.6754 42.036 33.0226 42.4257C33.3697 42.8153 33.8231 43.0101 34.3828 43.0101C34.7299 43.0101 35.0381 42.9287 35.3073 42.7657C35.5765 42.6028 35.789 42.369 35.9449 42.0644H37.9426C37.7301 42.872 37.3086 43.5096 36.6781 43.9772C36.0476 44.4376 35.2896 44.6679 34.404 44.6679C33.6814 44.6679 33.0332 44.5085 32.4594 44.1897C31.8926 43.8638 31.4498 43.4139 31.131 42.8401C30.8122 42.2663 30.6528 41.611 30.6528 40.8742ZM40.4156 38.6852L41.7864 42.3938L43.1466 38.6852H45.1125L41.3933 47.4308H39.438L40.7982 44.4128L38.386 38.6852H40.4156ZM47.5868 39.5246C47.7568 39.2484 48.0012 39.0252 48.32 38.8552C48.6388 38.6851 49.0036 38.6001 49.4145 38.6001C49.9034 38.6001 50.3461 38.7241 50.7429 38.9721C51.1396 39.22 51.4513 39.5742 51.678 40.0347C51.9118 40.4952 52.0287 41.0301 52.0287 41.6393C52.0287 42.2486 51.9118 42.787 51.678 43.2546C51.4513 43.715 51.1396 44.0728 50.7429 44.3278C50.3461 44.5758 49.9034 44.6998 49.4145 44.6998C48.9966 44.6998 48.6317 44.6183 48.32 44.4553C48.0083 44.2853 47.7639 44.0622 47.5868 43.7859V44.6147H45.7696V36.7511H47.5868V39.5246ZM50.1796 41.6393C50.1796 41.1859 50.0521 40.8317 49.7971 40.5767C49.5491 40.3145 49.241 40.1835 48.8726 40.1835C48.5113 40.1835 48.2031 40.3145 47.9481 40.5767C47.7001 40.8388 47.5762 41.1966 47.5762 41.6499C47.5762 42.1033 47.7001 42.4611 47.9481 42.7232C48.2031 42.9853 48.5113 43.1164 48.8726 43.1164C49.2339 43.1164 49.5421 42.9853 49.7971 42.7232C50.0521 42.454 50.1796 42.0927 50.1796 41.6393ZM58.5715 41.5437C58.5715 41.7066 58.5609 41.8802 58.5396 42.0644H54.4272C54.4555 42.4399 54.5724 42.7268 54.7779 42.9251C54.9833 43.1235 55.2419 43.2227 55.5536 43.2227C56.007 43.2227 56.3222 43.0314 56.4994 42.6488H58.4334C58.3342 43.0385 58.1536 43.3892 57.8914 43.7009C57.6364 44.0126 57.3141 44.257 56.9244 44.4341C56.5348 44.6112 56.0991 44.6998 55.6174 44.6998C55.0364 44.6998 54.5193 44.5758 54.0659 44.3278C53.6125 44.0799 53.2583 43.7257 53.0032 43.2652C52.7482 42.8047 52.6207 42.2663 52.6207 41.6499C52.6207 41.0336 52.7447 40.4952 52.9926 40.0347C53.2476 39.5742 53.6019 39.22 54.0553 38.9721C54.5087 38.7241 55.0294 38.6001 55.6174 38.6001C56.1912 38.6001 56.7013 38.7206 57.1476 38.9614C57.5939 39.2023 57.941 39.5459 58.189 39.9922C58.444 40.4385 58.5715 40.9557 58.5715 41.5437ZM56.7119 41.1399C56.7119 40.7998 56.6056 40.5342 56.3931 40.3429C56.1806 40.1516 55.9149 40.056 55.5961 40.056C55.2844 40.056 55.0223 40.1516 54.8097 40.3429C54.6043 40.5271 54.4768 40.7927 54.4272 41.1399H56.7119ZM61.3473 39.7478C61.5598 39.4007 61.8255 39.1279 62.1443 38.9296C62.4702 38.7241 62.8244 38.6214 63.2069 38.6214V40.5448H62.7075C62.2541 40.5448 61.914 40.644 61.6873 40.8423C61.4606 41.0336 61.3473 41.3737 61.3473 41.8625V44.6147H59.5302V38.6852H61.3473V39.7478Z" fill="#3B83FF"/>
</svg>
